<?xml version="1.0" encoding="UTF-8"?>
<svg width="40px" height="40px" viewBox="0 0 40 40" version="1.1" xmlns="http://www.w3.org/2000/svg" xmlns:xlink="http://www.w3.org/1999/xlink">
    <!-- Generator: Sketch 62 (91390) - https://sketch.com -->
    <title>general-electric</title>
    <desc>Created with Sketch.</desc>
    <g id="Mobile" stroke="none" stroke-width="1" fill="none" fill-rule="evenodd">
        <g id="No-Task" transform="translate(-27.000000, -44.000000)" fill-rule="nonzero">
            <g id="general-electric" transform="translate(27.500000, 44.000000)">
                <g id="Group" transform="translate(0.944271, 0.928646)" fill="#FEFFFE">
                    <path d="M17.1703945,0.0731810312 C20.7183762,-0.216002076 24.3467389,0.57010384 27.4629525,2.28749739 C32.7768396,5.15100032 36.5421217,10.7363655 37.0768153,16.7643578 C37.479193,20.4788853 36.6861231,24.3066074 34.8790237,27.5737863 C33.0707441,30.8646901 30.241471,33.5900933 26.8739632,35.2567323 C24.2311837,36.5893352 21.2567289,37.2621286 18.2965562,37.1970919 C14.242091,37.1628621 10.2277573,35.7122252 7.05382517,33.1945616 C4.3224022,31.0275769 2.20959501,28.0908929 1.05286258,24.7989269 C-0.750695739,19.736452 -0.219543094,13.8843302 2.53182761,9.25976112 C4.37905848,6.05395982 7.227217,3.44541016 10.5581343,1.84014883 C12.6284492,0.849844233 14.8805365,0.237248182 17.1703945,0.0731810312 M13.8831498,1.84014883 C10.6832502,2.70415714 7.69581167,4.58679818 5.79782621,7.33698854 C4.51951884,9.14526822 3.78416752,11.2864035 3.40645897,13.4535063 C3.22704741,14.8061751 3.15268604,16.2815991 3.82902041,17.5174143 C4.1418103,18.1311906 4.68830735,18.595064 4.95742469,19.2323291 C5.2135583,19.7978296 5.03178606,20.5626894 4.48056765,20.884804 C3.96357908,21.2555485 3.2329491,21.1137898 2.76553477,20.7278189 C2.09156108,20.1991449 1.805919,19.336317 1.66191761,18.5218829 C1.37745586,16.6876358 1.74690203,14.8321425 2.21431636,13.0616337 C1.84841121,13.2138975 1.90152647,13.720263 1.76342678,14.0413153 C0.964337137,17.1397057 0.970238833,20.4517375 1.84605053,23.5336032 C2.67346832,26.4773692 4.36253373,29.2111529 6.80111454,31.0852955 C8.63772236,32.5384111 10.8886292,33.3646485 13.1666839,33.8119971 C14.5405988,34.0433436 16.0349082,34.13541 17.3226583,33.5098302 C17.9612218,33.1899583 18.4392592,32.6327202 19.0647209,32.2939628 C19.5912702,32.0202422 20.2770473,32.1098299 20.6888677,32.5441947 C21.1646624,33.0188091 21.1729248,33.8319448 20.7856555,34.3630975 C20.3679335,34.932021 19.6950221,35.2483519 19.0306091,35.4313044 C17.5646278,35.7983899 16.0312492,35.6331425 14.5642055,35.3663858 C14.0271512,35.2814014 13.518425,35.0429728 12.9695673,35.0442712 C13.2634717,35.3346347 13.6942955,35.3853893 14.0731844,35.4987018 C16.9520318,36.2080857 20.00793,36.212807 22.8913807,35.5234889 C26.2094322,34.7255796 29.3491345,32.858283 31.320183,30.0290099 C32.59731,28.2726652 33.3007922,26.174022 33.735275,24.0659362 C33.9665035,22.5090688 34.0833571,20.749065 33.1379054,19.3916749 C32.6976388,18.7436687 31.9904976,18.1204496 32.1322563,17.2552609 C32.1924536,16.4467286 33.0977738,15.9356417 33.8412695,16.1988573 C34.8125706,16.5140079 35.2671193,17.5550671 35.4655343,18.4780923 C35.8431248,20.3902419 35.467895,22.3556247 34.9625917,24.2074589 C35.0947897,24.1873931 35.1762331,24.1130317 35.2068039,23.9855551 C36.0780123,21.2660536 36.2289777,18.3329106 35.7261532,15.526064 C35.1489673,12.2364586 33.6286904,9.0282966 31.0993415,6.79391447 C29.5814253,5.40937658 27.7104696,4.43323605 25.7322211,3.89382103 C24.0845856,3.40398025 22.300975,3.06510487 20.6001062,3.486604 C19.7632457,3.66955658 19.1128788,4.25618517 18.4425641,4.74838662 C17.874821,5.18629247 16.9659598,5.21580095 16.4536926,4.67402525 C15.9921799,4.18300414 16.0346721,3.37093076 16.4324464,2.85394218 C16.9611204,2.15754205 17.8358698,1.83530944 18.6691893,1.68540636 C19.9994315,1.48710937 21.3591823,1.61694669 22.6717195,1.87898199 C23.1922491,1.96868777 23.6784308,2.20829663 24.2085212,2.24724783 C24.0987496,2.15518137 23.9913388,2.05249186 23.8520587,2.00881931 C20.6417721,0.972599511 17.1290827,0.933648317 13.8831498,1.84014883 Z" id="Shape"></path>
                    <path d="M14.322236,8.42053994 C15.0398822,8.04283139 15.9570058,7.92951883 16.6888161,8.32847348 C17.2742644,8.66368982 17.5032502,9.38959844 17.4454136,10.0305226 C17.3415437,11.3029283 16.726587,12.4761855 15.9534648,13.4700311 C15.1177846,14.4804015 14.0873485,15.3750986 12.8527137,15.8543163 C12.9471408,16.2485496 13.2445863,16.6686323 13.6907545,16.6663897 C14.4721391,16.6947178 15.1496538,16.201336 15.7114953,15.7103149 C16.1151713,15.4034267 16.1364174,14.8663724 16.3252716,14.4331879 C16.6002907,13.7556732 16.9744582,13.0333056 17.6566943,12.6910072 C17.9765662,12.5210384 18.4652266,12.4879889 18.6859501,12.8291069 C18.9267393,13.2894392 18.7083765,13.8170508 18.47703,14.2337106 C18.1606991,14.8380442 17.6602353,15.3113603 17.262461,15.8554966 C17.1125579,16.3606818 17.0854101,16.8918345 17.0759674,17.4159051 C17.6283661,17.1715749 18.1241086,16.8233748 18.6446382,16.521208 C19.5499584,15.9357597 20.4895084,15.390443 21.3299099,14.7129283 C21.4265797,14.3859743 21.2944997,14.0295119 21.3098441,13.6895742 C21.2579092,12.0441813 21.8268327,10.3574766 22.948155,9.14054686 C23.6457354,8.40519553 24.6963554,7.88702662 25.7231325,8.14552091 C26.3393876,8.25765313 26.8221463,8.75811696 26.9955381,9.34710622 C27.2150812,10.2359017 26.9105537,11.1648286 26.4430213,11.921426 C25.638148,13.180848 24.4672515,14.1428244 23.282191,15.0280789 C23.4403564,15.4223122 23.6658012,15.8696607 24.0917856,16.0160228 C24.702021,15.8991692 25.3229975,15.7327414 25.9473969,15.856677 C26.365237,15.9440221 26.8668812,16.069138 27.0710798,16.4857978 C27.2599341,16.8918345 26.8988683,17.3073139 26.5281238,17.4336102 C25.7396572,17.6909241 24.9051574,17.5457424 24.100166,17.4843648 C23.1418486,17.7133506 22.3084111,18.3471927 21.7111595,19.1192526 C20.7835309,20.338543 20.4967085,21.9520667 20.6984284,23.4475565 C20.8909418,24.688093 21.5140428,25.9380722 22.6095156,26.6120459 C23.8428521,27.4016929 25.620561,27.2342027 26.6427347,26.1682384 C27.6070719,25.1730944 27.9115994,23.5890792 27.374427,22.3107718 C27.1466215,21.7489303 26.6567808,21.2698306 26.0431224,21.1742232 C25.3266565,21.0123987 24.4755139,21.4786326 24.3717621,22.2399514 C24.2677742,22.8253997 24.6786503,23.3105191 25.025552,23.7295395 C25.293607,24.0070373 25.3254762,24.5191865 24.9926205,24.7587953 C24.4768123,25.1117167 23.7615267,24.8639635 23.3507687,24.4542678 C22.3368573,23.4534582 22.3687264,21.6463589 23.3401456,20.6241851 C24.5746624,19.207778 27.033309,19.1806302 28.29639,20.5757912 C29.64658,22.071281 29.8165488,24.4684319 28.7779684,26.1824024 C27.9988265,27.5278711 26.5943408,28.4994083 25.0504571,28.7189514 C23.3708344,28.967885 21.556535,28.43567 20.3761958,27.1902941 C18.0674523,24.8390584 18.1040428,20.7044482 20.3065558,18.2953758 C20.895427,17.5907133 21.6733886,17.0890692 22.4535928,16.6240155 C22.2848043,16.39621 22.1077534,16.1743063 21.9282239,15.9535828 C20.4126683,17.0524786 18.8275908,18.0510456 17.196362,18.9681692 C16.9201626,19.0696784 16.9697369,19.402534 16.9296053,19.6374215 C16.7844236,21.6451785 16.6132744,23.7378019 15.6147074,25.5320355 C14.9395534,26.7996018 13.91856,27.9611736 12.5493665,28.4828836 C11.4634544,28.8924613 10.1497369,28.9289338 9.15353059,28.2691241 C8.19981651,27.6706922 7.76663202,26.4763069 7.83981305,25.3879161 C7.99089647,24.0033782 8.77818272,22.753399 9.77911038,21.813967 C11.1530252,20.5591484 12.8184838,19.6917171 14.4532537,18.8300695 C14.7861093,18.6447562 15.1484735,18.5042959 15.4459189,18.264687 C15.5556905,17.9648808 15.5722152,17.6425302 15.602904,17.328678 C14.7554205,17.8409452 13.6848528,18.2528836 12.7098926,17.8598307 C11.9131637,17.5529425 11.4174212,16.7904433 11.1636483,16.0090588 C10.4117722,15.9287957 9.65517476,15.6289895 9.17595704,15.0222952 C8.34027688,14.0201872 8.28716161,12.4963693 8.89149529,11.3667847 C9.09333329,10.9595676 9.54658355,10.7412049 9.99039109,10.7683527 C10.0765559,10.9430429 10.2382623,11.1165527 10.1792454,11.3290138 C10.0470474,12.0620044 9.78973343,12.8233232 10.0328833,13.5657566 C10.1532779,14.0733025 10.5734787,14.4781588 11.0951886,14.5477988 C11.2061405,13.3462135 11.4398476,12.1399068 12.0052301,11.0598965 C12.5375631,10.0092765 13.2646521,8.99064378 14.322236,8.42053994 M15.0292592,9.5961578 C14.3163343,10.0812772 13.8819695,10.8567601 13.5066216,11.6109968 C13.1029456,12.4620214 12.777172,13.3767843 12.7405815,14.325777 C13.0132398,14.2053824 13.2705538,14.0483973 13.4912772,13.8465593 C14.3836136,13.0698961 15.1638179,12.1445102 15.6867081,11.0774835 C15.8708411,10.6915126 16.0301868,10.2536067 15.9251367,9.82160259 C15.7893976,9.47104184 15.3160816,9.37897538 15.0292592,9.5961578 M24.2559708,9.96678431 C23.4225333,10.9370231 22.9647978,12.2235929 22.9788438,13.5019003 C23.9185118,12.7264174 24.7848808,11.8175562 25.3690307,10.7399065 C25.5366389,10.3952474 25.7586607,9.83222564 25.3336205,9.58081339 C24.9464693,9.38133606 24.5097437,9.67406019 24.2559708,9.96678431 M11.6204395,22.3662477 C10.8014022,23.101481 10.0021945,23.9585253 9.70486704,25.0454997 C9.56204599,25.6285873 9.5289965,26.365237 10.0188373,26.7994838 C10.5358258,27.2716195 11.3148497,27.1311591 11.9121014,26.9068947 C13.0641124,26.4630871 13.7593322,25.3476666 14.2279269,24.2641152 C14.774424,22.9185285 15.1131813,21.4855967 15.251281,20.0396811 C13.9433471,20.6441328 12.721696,21.4397995 11.6204395,22.3662477 L11.6204395,22.3662477 Z" id="Shape"></path>
                </g>
                <g id="Group" fill="#3A4851">
                    <path d="M18.1193873,0.0646380664 C21.9731948,-0.229266397 25.906085,0.671332422 29.2511664,2.60590839 C31.9269954,4.14861174 34.2404602,6.32515725 35.9152435,8.92308386 C37.9951193,12.0993767 39.0951954,15.9012493 39.0632082,19.6972202 C39.0385391,23.6643403 37.7755762,27.6172963 35.468013,30.8480028 C33.1274003,34.1610969 29.7244824,36.7129903 25.8836586,38.0184454 C22.4725963,39.1987847 18.734344,39.3840979 15.2145724,38.5957494 C11.5236517,37.7730529 8.09476632,35.8313949 5.47205259,33.1083524 C2.69235374,30.229387 0.810893039,26.48181 0.236067842,22.5170506 C-0.32931464,18.9854756 0.138099688,15.301637 1.51791623,12.0061299 C2.79858427,8.94078894 4.88424366,6.22364808 7.495154,4.17339887 C10.5215437,1.78675298 14.2726618,0.331394728 18.1193873,0.0646380664 M18.1146659,1.0018274 C15.8248078,1.16589455 13.5727206,1.7784906 11.5022876,2.7687952 C8.17137033,4.37405653 5.32321181,6.98260619 3.47598095,10.1884075 C0.724728276,14.8129765 0.193575631,20.6650983 1.99713395,25.7275732 C3.15386638,29.0196573 5.26667357,31.9563413 7.9979785,34.123326 C11.1719106,36.6409896 15.1862443,38.0916265 19.2407095,38.1258563 C22.2010002,38.190893 25.1754551,37.5180997 27.8181165,36.1854967 C31.1856243,34.5188577 34.0148974,31.7934545 35.8231771,28.5025507 C37.6303944,25.2353718 38.4233463,21.4076497 38.0209687,17.6931222 C37.486275,11.6651299 33.7208749,6.07976473 28.4071058,3.2162618 C25.2911283,1.49875021 21.6626475,0.712644294 18.1146659,1.0018274 Z" id="Shape"></path>
                    <path d="M14.8274212,2.7687952 C18.073354,1.86229469 21.5860435,1.90124588 24.7965662,2.93758371 C24.9358462,2.98125626 25.0432571,3.08394577 25.1530286,3.17601223 C24.6230563,3.13706104 24.1368746,2.89745218 23.616227,2.8077464 C22.3036898,2.54571109 20.943821,2.41587378 19.6136967,2.61417077 C18.7803772,2.76407385 17.9057459,3.08630645 17.3769539,3.78270659 C16.9791796,4.29969516 16.9366874,5.11176854 17.3982,5.60278965 C17.9104672,6.14456535 18.8193284,6.11505687 19.3870716,5.67715102 C20.0575042,5.18494957 20.7077531,4.59832098 21.5446136,4.4153684 C23.2454824,3.9939873 25.029093,4.33274466 26.6767285,4.82258543 C28.654977,5.36200045 30.5258147,6.33814098 32.0438489,7.72267888 C34.5733159,9.95706101 36.0935928,13.165223 36.6706606,16.4548284 C37.1734851,19.261675 37.0224017,22.194818 36.1513114,24.9143195 C36.1206225,25.0417961 36.0392972,25.1161575 35.9070992,25.1362233 C36.4122844,23.2843891 36.7876322,21.3190063 36.4100417,19.4068567 C36.2116267,18.4838315 35.7571961,17.4427723 34.7857769,17.1276217 C34.0421632,16.8644061 33.1368431,17.375493 33.0767638,18.1840253 C32.935005,19.049214 33.6420282,19.6724331 34.0824128,20.3204393 C35.0278645,21.6778294 34.9110109,23.4377152 34.6797825,24.9947006 C34.2452996,27.1026684 33.5418174,29.2014296 32.2646904,30.9577743 C30.293642,33.7870474 27.1539397,35.654344 23.8358881,36.4522533 C20.9523194,37.1415714 17.8965392,37.1368501 15.0176919,36.4274662 C14.638803,36.3141537 14.2079792,36.2633991 13.9140747,35.9730356 C14.4629324,35.9717372 14.9716586,36.2102838 15.508713,36.2951502 C16.9758746,36.5619069 18.5091353,36.7271543 19.9751166,36.3600689 C20.6395295,36.1771163 21.3124409,35.8609034 21.7301629,35.2918619 C22.1173142,34.7607092 22.1091699,33.9474555 21.6333751,33.4729591 C21.2215548,33.0385943 20.5357777,32.9490066 20.0092284,33.2227272 C19.3837666,33.5614846 18.9056112,34.1187227 18.2671657,34.4385946 C16.9794156,35.0641744 15.4851062,34.972108 14.1111914,34.7407615 C11.8331367,34.2934129 9.58222979,33.4671755 7.74562198,32.0140599 C5.3068051,30.1396812 3.61773969,27.4060156 2.7903219,24.4622496 C1.9145102,21.3803839 1.90860851,18.0683521 2.70769815,14.9699616 C2.84579784,14.6489094 2.79268258,14.1425439 3.15858773,13.9902801 C2.6911734,15.7607889 2.32172723,17.6162822 2.60618898,19.4505293 C2.75019037,20.2649633 3.03583245,21.1277913 3.70980614,21.6564652 C4.17722047,22.0425542 4.90785045,22.1841949 5.42483902,21.8134504 C5.97605743,21.4913358 6.15782967,20.726476 5.90169606,20.1609755 C5.63257872,19.5237103 5.08608167,19.059719 4.77329178,18.4460606 C4.09695741,17.2102455 4.17131878,15.7348215 4.35073034,14.3821527 C4.72843889,12.2150499 5.46379021,10.0739146 6.74209758,8.26563491 C8.64008304,5.51544455 11.6275216,3.63280351 14.8274212,2.7687952 M15.2665074,9.34918631 C14.2089234,9.91929015 13.4818345,10.9379229 12.9495015,11.9884248 C12.384119,13.0684352 12.1504119,14.2747418 12.03946,15.4763272 C11.51775,15.4066872 11.0975493,15.0018308 10.9771547,14.4942849 C10.7340048,13.7518516 10.9913187,12.9905328 11.1235167,12.2575421 C11.1825337,12.0450811 11.0208272,11.8715712 10.9346625,11.696881 C10.4908549,11.6697332 10.0376047,11.888096 9.83576666,12.295313 C9.23143298,13.4248976 9.28454825,14.9487155 10.1202284,15.9508235 C10.5995642,16.5575179 11.3560436,16.857324 12.1079196,16.9375871 C12.3616926,17.7189717 12.857435,18.4814708 13.654164,18.788359 C14.6291242,19.181412 15.6996919,18.7694736 16.5471754,18.2572063 C16.5164866,18.5711766 16.4999619,18.8934092 16.3901903,19.1932153 C16.0927448,19.4328242 15.7303807,19.5732846 15.397525,19.7585978 C13.7627552,20.6202455 12.0972966,21.4876767 10.7233817,22.7424954 C9.72245409,23.6819273 8.93516784,24.9319066 8.78408442,26.3164445 C8.71090339,27.4048352 9.14408788,28.5992205 10.097802,29.1976525 C11.0938902,29.8574621 12.4077258,29.8208716 13.4936379,29.4114119 C14.8628314,28.889702 15.8838248,27.7281302 16.5589788,26.4605639 C17.5575458,24.6663302 17.728695,22.5735888 17.8738767,20.5659498 C17.9140082,20.3310623 17.864434,19.9982067 18.1406334,19.8966975 C19.7718621,18.9794559 21.3570577,17.981007 22.8724952,16.8821112 C23.0520248,17.1028346 23.2290757,17.3247384 23.3978642,17.5525438 C22.61766,18.0175975 21.8396984,18.5192417 21.2508272,19.2239042 C19.0483142,21.6329765 19.0117237,25.7675867 21.3204672,28.1188224 C22.5008064,29.3641983 24.3149878,29.8965313 25.9947285,29.6474797 C27.5386122,29.4279367 28.9430978,28.4563994 29.7222397,27.1109308 C30.7608202,25.3969602 30.5908514,22.9998093 29.2406613,21.5043195 C27.9775804,20.1091586 25.5189338,20.1363064 24.284417,21.5527134 C23.3129978,22.5748872 23.2811287,24.3819865 24.29504,25.3827961 C24.7057981,25.7924919 25.4210837,26.0402451 25.9368919,25.6873237 C26.2697475,25.4478328 26.2378784,24.9355656 25.9698234,24.6580679 C25.6229217,24.2390474 25.2120456,23.753928 25.3160335,23.1684798 C25.4197853,22.407161 26.2709279,21.940927 26.9873938,22.1027515 C27.6010521,22.198359 28.091011,22.6774587 28.3186984,23.2393001 C28.8558708,24.5176075 28.5513432,26.1016227 27.5870061,27.0967667 C26.5648324,28.162613 24.7871235,28.3302212 23.553787,27.5405743 C22.4583142,26.8666006 21.8350951,25.6166213 21.6426998,24.3760848 C21.4409798,22.880595 21.7278023,21.2670713 22.6554308,20.0477809 C23.2528005,19.2757211 24.08612,18.6419969 25.0444374,18.4128931 C25.8494288,18.4742707 26.6840466,18.6194525 27.4723952,18.3621385 C27.8431397,18.2358422 28.2040874,17.8203628 28.0153512,17.4143261 C27.8112706,16.9976664 27.3096264,16.8725504 26.8916683,16.7852053 C26.2672688,16.6612697 25.6462924,16.8276975 25.036057,16.9445511 C24.6100726,16.798189 24.3845098,16.3508405 24.2264623,15.9566072 C25.4115229,15.0713528 26.5824194,14.1093763 27.3872927,12.8499544 C27.8548251,12.0933569 28.1593526,11.16443 27.9398095,10.2756346 C27.7662996,9.68664529 27.2835409,9.18618147 26.6674038,9.07404924 C25.6406267,8.81555495 24.5900068,9.33372387 23.8924263,10.0690752 C22.7711041,11.2860049 22.2021806,12.9727097 22.2541155,14.6181025 C22.2387711,14.9580402 22.3708511,15.3145027 22.2741813,15.6414566 C21.4337798,16.3189713 20.4942297,16.864288 19.5889096,17.4497363 C19.06838,17.7520212 18.5726375,18.1001032 18.0202388,18.3444334 C18.0296815,17.8203628 18.0568293,17.2892102 18.2067324,16.784025 C18.6045067,16.2398886 19.1049705,15.7665726 19.4213014,15.1622389 C19.6526479,14.7455792 19.8710106,14.2179675 19.6302214,13.7576352 C19.409498,13.4165172 18.9208376,13.4495667 18.6009656,13.6195355 C17.9187296,13.9618339 17.5445621,14.6842015 17.269543,15.3617162 C17.0806887,15.7949007 17.0594426,16.3319551 16.6557666,16.6388433 C16.0939252,17.1298644 15.4164105,17.6232462 14.6350259,17.594918 C14.1888577,17.5972787 13.8914122,17.1770779 13.7969851,16.7828446 C15.0316199,16.3035089 16.062056,15.4088118 16.8977362,14.3985594 C17.6708584,13.4047138 18.2858151,12.2314566 18.3896849,10.959051 C18.4475216,10.3181268 18.2185357,9.59221816 17.6330875,9.25700182 C16.9012772,8.8581652 15.9841536,8.97147776 15.2665074,9.34918631 L15.2665074,9.34918631 Z" id="Shape"></path>
                    <path d="M15.9735306,10.5248042 C16.260353,10.3076218 16.733669,10.3996882 16.869408,10.750249 C16.9744582,11.1822531 16.8151124,11.620159 16.6309795,12.0061299 C16.1080892,13.0731565 15.327885,13.9985425 14.4355486,14.7752057 C14.2148251,14.9770437 13.9575112,15.1340288 13.6848528,15.2544234 C13.7214433,14.3054307 14.047217,13.3906678 14.450893,12.5396432 C14.8262408,11.7854064 15.2606057,11.0099236 15.9735306,10.5248042 L15.9735306,10.5248042 Z M25.2002422,10.8954307 C25.4540151,10.6027066 25.8907406,10.3099824 26.2778919,10.5094598 C26.702932,10.760872 26.4809102,11.3238938 26.3133021,11.6685529 C25.7291522,12.7462026 24.8627832,13.6550638 23.9231152,14.4305466 C23.9090691,13.1522393 24.3668047,11.8656695 25.2002422,10.8954307 L25.2002422,10.8954307 Z M12.5647109,23.2948941 C13.6659674,22.3683278 14.8876185,21.5727792 16.1954343,20.9684455 C16.0573346,22.4143611 15.7185773,23.8472929 15.1720802,25.1928796 C14.7034856,26.276431 14.0082658,27.3918515 12.8562547,27.8356591 C12.2590031,28.0598055 11.4799792,28.2003839 10.9629906,27.7282482 C10.4731498,27.2938834 10.5061993,26.5573517 10.6490204,25.9742641 C10.9464659,24.8871717 11.7455555,24.0302454 12.5647109,23.2948941 L12.5647109,23.2948941 Z" id="Shape"></path>
                </g>
            </g>
        </g>
    </g>
</svg>